# xmcd
#
# Track frame offsets:
#  150
#  13930
#  26141
#  39579
#  50487
#  67070
#  85909
#  99540
#  111661
#  121051
#  140990
#  155633
#  164939
#  183324
#  198985
#  213704
#  231093
#  245827
#  261424
#  274786
#  286213
#  299096
#  314971
#
# Disc length: 4469 seconds
#
# Revision: 0
# Processed by: cddbd v1.5.2PL0 Copyright (c) Steve Scherf et al.
# Submitted via: AltoMP3_Maker 3.0
#
DISCID=86117317
DTITLE=Various Artist - Truckers, Kickers, Cowboy Angels, Vol. 6, disc 1 (1973)
DYEAR=1900
DGENRE=
TTITLE0=Doug Sahm and Band w Dylan - (Is Anybody Going to) San Antone
TTITLE1=Willie Nelson - Shotgun Willie
TTITLE2=Gram Parsons - That's All It Took
TTITLE3=Delbert and Glen - California Livin'
TTITLE4=Townes Van Zandt - Pancho and Lefty
TTITLE5=Jerry Jeff Walker - Gettin' By
TTITLE6=Bobby Bare - Ride Me Down Easy
TTITLE7=Billy Joe Shaver - Old Five and Dimers Like Me
TTITLE8=J. J. Cale - If You're Ever in Oklahoma
TTITLE9=Hank Wilson - Roll in My Sweet Baby's Arms
TTITLE10=Gene Clark - Rough and Rocky
TTITLE11=Earl Scruggs Revue - Salty Dog Blues
TTITLE12=New Riders of the Purple Sage - Lonesome LA Cowboy
TTITLE13=The Band - Crying Heart Blues
TTITLE14=Goose Creek Symphony - Mercedes Benz
TTITLE15=Rick Roberts - Glad to Be Goin'
TTITLE16=Ozark Mountain Daredevils - Country Girl
TTITLE17=Borderline - Please Help Me Forget
TTITLE18=Dennis Linde - Burning Love
TTITLE19=Little Feat - Roll Um Easy
TTITLE20=Dan Hicks and His Hot Licks - Payday Blues
TTITLE21=Doug Sahm and Band - It's Gonna Be Easy
TTITLE22=Jerry Jeff Walker and Lost Gonzo Band - Up Against Wall, Redneck Mother
EXTD=
EXTT0=
EXTT1=
EXTT2=
EXTT3=
EXTT4=
EXTT5=
EXTT6=
EXTT7=
EXTT8=
EXTT9=
EXTT10=
EXTT11=
EXTT12=
EXTT13=
EXTT14=
EXTT15=
EXTT16=
EXTT17=
EXTT18=
EXTT19=
EXTT20=
EXTT21=
EXTT22=
PLAYORDER=
